<svg width="32" height="28" viewBox="0 0 32 28" fill="none" xmlns="http://www.w3.org/2000/svg">
<g filter="url(#filter0_dd_0_8511)">
<path fill-rule="evenodd" clip-rule="evenodd" d="M11.5188 13.1946H11.5178C11.1416 13.1955 10.8359 13.491 10.8359 13.8542C10.8359 14.2179 11.1427 14.5139 11.5195 14.5139H23.9154C24.293 14.5139 24.599 14.8092 24.599 15.1736C24.599 15.538 24.293 15.8333 23.9154 15.8333H22.75H12.75H11.5195C10.3888 15.8333 9.46876 14.9455 9.46876 13.8542C9.46876 13.0421 9.97843 12.343 10.7049 12.0382L8.23686 1.31944H4.68359C4.30602 1.31944 4 1.02412 4 0.659722C4 0.295329 4.30602 0 4.68359 0H8.78516C9.1056 0 9.38295 0.214753 9.45256 0.516611L9.94122 2.63889H26.6498C26.8643 2.63889 27.0663 2.73613 27.1956 2.9014C27.3246 3.06668 27.3659 3.28074 27.307 3.47986L24.5726 12.716C24.4888 12.9991 24.2205 13.1944 23.9154 13.1944H11.5215L11.5188 13.1946ZM12.75 15.8333C13.8987 15.8333 14.8333 16.7679 14.8333 17.9167C14.8333 19.0654 13.8987 20 12.75 20C11.6013 20 10.6667 19.0654 10.6667 17.9167C10.6667 16.7679 11.6013 15.8333 12.75 15.8333ZM22.75 15.8333C23.8987 15.8333 24.8333 16.7679 24.8333 17.9167C24.8333 19.0654 23.8987 20 22.75 20C21.6013 20 20.6667 19.0654 20.6667 17.9167C20.6667 16.7679 21.6013 15.8333 22.75 15.8333ZM23.3997 11.875L25.7435 3.95833H10.2449L12.0678 11.875H23.3997ZM13.4444 17.9167C13.4444 17.5338 13.1328 17.2222 12.75 17.2222C12.3672 17.2222 12.0556 17.5338 12.0556 17.9167C12.0556 18.2995 12.3672 18.6111 12.75 18.6111C13.1328 18.6111 13.4444 18.2995 13.4444 17.9167ZM22.75 17.2222C23.1328 17.2222 23.4444 17.5338 23.4444 17.9167C23.4444 18.2995 23.1328 18.6111 22.75 18.6111C22.3672 18.6111 22.0556 18.2995 22.0556 17.9167C22.0556 17.5338 22.3672 17.2222 22.75 17.2222Z" fill="white"/>
</g>
<defs>
<filter id="filter0_dd_0_8511" x="0" y="0" width="31.3334" height="28" filterUnits="userSpaceOnUse" color-interpolation-filters="sRGB">
<feFlood flood-opacity="0" result="BackgroundImageFix"/>
<feColorMatrix in="SourceAlpha" type="matrix" values="0 0 0 0 0 0 0 0 0 0 0 0 0 0 0 0 0 0 127 0" result="hardAlpha"/>
<feOffset dy="4"/>
<feGaussianBlur stdDeviation="2"/>
<feComposite in2="hardAlpha" operator="out"/>
<feColorMatrix type="matrix" values="0 0 0 0 0 0 0 0 0 0 0 0 0 0 0 0 0 0 0.25 0"/>
<feBlend mode="normal" in2="BackgroundImageFix" result="effect1_dropShadow_0_8511"/>
<feColorMatrix in="SourceAlpha" type="matrix" values="0 0 0 0 0 0 0 0 0 0 0 0 0 0 0 0 0 0 127 0" result="hardAlpha"/>
<feOffset dy="4"/>
<feGaussianBlur stdDeviation="2"/>
<feComposite in2="hardAlpha" operator="out"/>
<feColorMatrix type="matrix" values="0 0 0 0 0 0 0 0 0 0 0 0 0 0 0 0 0 0 0.25 0"/>
<feBlend mode="normal" in2="effect1_dropShadow_0_8511" result="effect2_dropShadow_0_8511"/>
<feBlend mode="normal" in="SourceGraphic" in2="effect2_dropShadow_0_8511" result="shape"/>
</filter>
</defs>
</svg>
